solid OpenSCAD_Model
  facet normal 1 0 0
    outer loop
      vertex 6 1 8.5
      vertex 6 13.5 7.5
      vertex 6 13.5 8.5
    endloop
  endfacet
  facet normal 1 0 0
    outer loop
      vertex 6 13.5 7.5
      vertex 6 1 8.5
      vertex 6 1 7.5
    endloop
  endfacet
  facet normal 1 0 0
    outer loop
      vertex 6 13.5 8.5
      vertex 6 14.5 11.449999809265137
      vertex 6 13.5 11.25
    endloop
  endfacet
  facet normal 1 0 0
    outer loop
      vertex 6 14.5 11.449999809265137
      vertex 6 1 11.25
      vertex 6 13.5 11.25
    endloop
  endfacet
  facet normal 1 0 0
    outer loop
      vertex 6 0 11.449999809265137
      vertex 6 1 8.5
      vertex 6 1 11.25
    endloop
  endfacet
  facet normal 1 0 0
    outer loop
      vertex 6 1 8.5
      vertex 6 0 11.449999809265137
      vertex 6 1 7.5
    endloop
  endfacet
  facet normal 1 0 0
    outer loop
      vertex 6 0 0
      vertex 6 1 7.5
      vertex 6 0 11.449999809265137
    endloop
  endfacet
  facet normal 1 0 0
    outer loop
      vertex 6 0 11.449999809265137
      vertex 6 1 11.25
      vertex 6 14.5 11.449999809265137
    endloop
  endfacet
  facet normal 1 0 0
    outer loop
      vertex 6 13.5 7.5
      vertex 6 14.5 11.449999809265137
      vertex 6 13.5 8.5
    endloop
  endfacet
  facet normal 1 0 0
    outer loop
      vertex 6 14.5 11.449999809265137
      vertex 6 13.5 7.5
      vertex 6 14.5 0
    endloop
  endfacet
  facet normal 1 0 0
    outer loop
      vertex 6 13.5 1
      vertex 6 14.5 0
      vertex 6 13.5 7.5
    endloop
  endfacet
  facet normal 1 0 0
    outer loop
      vertex 6 1 1
      vertex 6 14.5 0
      vertex 6 13.5 1
    endloop
  endfacet
  facet normal 1 0 0
    outer loop
      vertex 6 1 1
      vertex 6 0 0
      vertex 6 14.5 0
    endloop
  endfacet
  facet normal 1 0 0
    outer loop
      vertex 6 1 7.5
      vertex 6 0 0
      vertex 6 1 1
    endloop
  endfacet
  facet normal 0 0 1
    outer loop
      vertex 0 14.5 11.449999809265137
      vertex 6 0 11.449999809265137
      vertex 6 14.5 11.449999809265137
    endloop
  endfacet
  facet normal 0 0 1
    outer loop
      vertex 6 0 11.449999809265137
      vertex 0 14.5 11.449999809265137
      vertex 0 0 11.449999809265137
    endloop
  endfacet
  facet normal 0 0 -1
    outer loop
      vertex 0 0 0
      vertex 6 14.5 0
      vertex 6 0 0
    endloop
  endfacet
  facet normal 0 0 -1
    outer loop
      vertex 6 14.5 0
      vertex 0 0 0
      vertex 0 14.5 0
    endloop
  endfacet
  facet normal -1 0 0
    outer loop
      vertex 0 1 7.5
      vertex 0 13.5 8.5
      vertex 0 13.5 7.5
    endloop
  endfacet
  facet normal -1 0 0
    outer loop
      vertex 0 13.5 8.5
      vertex 0 1 7.5
      vertex 0 1 8.5
    endloop
  endfacet
  facet normal -1 0 0
    outer loop
      vertex 0 13.5 7.5
      vertex 0 14.5 0
      vertex 0 13.5 1
    endloop
  endfacet
  facet normal -1 0 0
    outer loop
      vertex 0 14.5 0
      vertex 0 1 1
      vertex 0 13.5 1
    endloop
  endfacet
  facet normal -1 0 0
    outer loop
      vertex 0 0 0
      vertex 0 1 7.5
      vertex 0 1 1
    endloop
  endfacet
  facet normal -1 0 0
    outer loop
      vertex 0 0 11.449999809265137
      vertex 0 1 7.5
      vertex 0 0 0
    endloop
  endfacet
  facet normal -1 0 0
    outer loop
      vertex 0 1 7.5
      vertex 0 0 11.449999809265137
      vertex 0 1 8.5
    endloop
  endfacet
  facet normal -1 0 0
    outer loop
      vertex 0 0 0
      vertex 0 1 1
      vertex 0 14.5 0
    endloop
  endfacet
  facet normal -1 0 0
    outer loop
      vertex 0 14.5 0
      vertex 0 13.5 7.5
      vertex 0 14.5 11.449999809265137
    endloop
  endfacet
  facet normal -1 0 0
    outer loop
      vertex 0 13.5 8.5
      vertex 0 14.5 11.449999809265137
      vertex 0 13.5 7.5
    endloop
  endfacet
  facet normal -1 0 0
    outer loop
      vertex 0 13.5 11.25
      vertex 0 14.5 11.449999809265137
      vertex 0 13.5 8.5
    endloop
  endfacet
  facet normal -1 0 0
    outer loop
      vertex 0 1 11.25
      vertex 0 14.5 11.449999809265137
      vertex 0 13.5 11.25
    endloop
  endfacet
  facet normal -1 0 0
    outer loop
      vertex 0 1 11.25
      vertex 0 0 11.449999809265137
      vertex 0 14.5 11.449999809265137
    endloop
  endfacet
  facet normal -1 0 0
    outer loop
      vertex 0 1 8.5
      vertex 0 0 11.449999809265137
      vertex 0 1 11.25
    endloop
  endfacet
  facet normal 0 1 0
    outer loop
      vertex 6 14.5 0
      vertex 0 14.5 11.449999809265137
      vertex 6 14.5 11.449999809265137
    endloop
  endfacet
  facet normal 0 1 0
    outer loop
      vertex 0 14.5 11.449999809265137
      vertex 6 14.5 0
      vertex 0 14.5 0
    endloop
  endfacet
  facet normal 0 -1 0
    outer loop
      vertex 0 0 0
      vertex 6 0 11.449999809265137
      vertex 0 0 11.449999809265137
    endloop
  endfacet
  facet normal 0 -1 0
    outer loop
      vertex 6 0 11.449999809265137
      vertex 0 0 0
      vertex 6 0 0
    endloop
  endfacet
  facet normal 0 0 -1
    outer loop
      vertex 0 1 7.5
      vertex 6 13.5 7.5
      vertex 6 1 7.5
    endloop
  endfacet
  facet normal 0 0 -1
    outer loop
      vertex 6 13.5 7.5
      vertex 0 1 7.5
      vertex 0 13.5 7.5
    endloop
  endfacet
  facet normal 0 0 1
    outer loop
      vertex 0 13.5 1
      vertex 6 1 1
      vertex 6 13.5 1
    endloop
  endfacet
  facet normal 0 0 1
    outer loop
      vertex 6 1 1
      vertex 0 13.5 1
      vertex 0 1 1
    endloop
  endfacet
  facet normal 0 -1 0
    outer loop
      vertex 0 13.5 1
      vertex 6 13.5 7.5
      vertex 0 13.5 7.5
    endloop
  endfacet
  facet normal 0 -1 0
    outer loop
      vertex 6 13.5 7.5
      vertex 0 13.5 1
      vertex 6 13.5 1
    endloop
  endfacet
  facet normal 0 1 0
    outer loop
      vertex 6 1 1
      vertex 0 1 7.5
      vertex 6 1 7.5
    endloop
  endfacet
  facet normal 0 1 0
    outer loop
      vertex 0 1 7.5
      vertex 6 1 1
      vertex 0 1 1
    endloop
  endfacet
  facet normal 0 0 -1
    outer loop
      vertex 0 1 11.25
      vertex 6 13.5 11.25
      vertex 6 1 11.25
    endloop
  endfacet
  facet normal 0 0 -1
    outer loop
      vertex 6 13.5 11.25
      vertex 0 1 11.25
      vertex 0 13.5 11.25
    endloop
  endfacet
  facet normal 0 0 1
    outer loop
      vertex 0 13.5 8.5
      vertex 6 1 8.5
      vertex 6 13.5 8.5
    endloop
  endfacet
  facet normal 0 0 1
    outer loop
      vertex 6 1 8.5
      vertex 0 13.5 8.5
      vertex 0 1 8.5
    endloop
  endfacet
  facet normal 0 -1 0
    outer loop
      vertex 0 13.5 8.5
      vertex 6 13.5 11.25
      vertex 0 13.5 11.25
    endloop
  endfacet
  facet normal 0 -1 0
    outer loop
      vertex 6 13.5 11.25
      vertex 0 13.5 8.5
      vertex 6 13.5 8.5
    endloop
  endfacet
  facet normal 0 1 0
    outer loop
      vertex 6 1 8.5
      vertex 0 1 11.25
      vertex 6 1 11.25
    endloop
  endfacet
  facet normal 0 1 0
    outer loop
      vertex 0 1 11.25
      vertex 6 1 8.5
      vertex 0 1 8.5
    endloop
  endfacet
endsolid OpenSCAD_Model
